<svg id="Layer_1" data-name="Layer 1" xmlns="http://www.w3.org/2000/svg" viewBox="0 0 325.33 325.33">
  <defs>
    <style>
      .cls-1, .cls-2, .cls-3, .cls-4, .cls-5, .cls-6, .cls-8 {
        fill: none;
      }

      .cls-1, .cls-8 {
        stroke: #f0532d;
        stroke-miterlimit: 10;
      }

      .cls-1, .cls-2, .cls-3, .cls-4, .cls-5, .cls-6 {
        stroke-linecap: round;
      }

      .cls-1, .cls-2, .cls-3, .cls-4 {
        stroke-width: 6px;
      }

      .cls-2, .cls-6 {
        stroke: #1a98a6;
      }

      .cls-2, .cls-3, .cls-4, .cls-5, .cls-6 {
        stroke-linejoin: round;
      }

      .cls-3 {
        stroke: #231f20;
      }

      .cls-4, .cls-5 {
        stroke: #f1a01f;
      }

      .cls-5, .cls-6 {
        stroke-width: 12px;
      }

      .cls-7 {
        fill: #231f20;
      }

      .cls-8 {
        stroke-width: 11px;
      }
    </style>
  </defs>
  <g>
    <path class="cls-1" d="M20.36,161.36a141,141,0,0,1,282,0"/>
    <path class="cls-2" d="M161.36,20.36a141,141,0,0,1,0,282"/>
    <path class="cls-3" d="M302.36,161.36a141,141,0,0,1-141,141"/>
    <path class="cls-4" d="M161.36,302.36a141,141,0,0,1-141-141"/>
    <polyline class="cls-5" points="64.2 158.56 89.76 113.25 115.86 158.41"/>
    <g>
      <polyline class="cls-6" points="141.16 115.34 187.8 115.28 141.16 158.48"/>
      <line class="cls-6" x1="169.95" y1="138.5" x2="190.09" y2="158.56"/>
    </g>
    <g>
      <path class="cls-7" d="M95.76,182a1.56,1.56,0,0,1-.5,1.52,2.07,2.07,0,0,1-1.42.6,1.84,1.84,0,0,1-1-.3,1.38,1.38,0,0,1-.58-1,3.17,3.17,0,0,0-1.06-2,3.29,3.29,0,0,0-2.1-.72,3.81,3.81,0,0,0-3,1,3.41,3.41,0,0,0-.92,2.34,5.59,5.59,0,0,0,1.14,3.16,27.37,27.37,0,0,0,3.54,3.92q2,1.88,3.28,3.36a18.77,18.77,0,0,1,2.12,2.8,9.53,9.53,0,0,1,1.12,2.58,11.1,11.1,0,0,1,.32,2.7,7.51,7.51,0,0,1-.68,3.28,6.74,6.74,0,0,1-1.82,2.32,8.14,8.14,0,0,1-2.62,1.4,10.2,10.2,0,0,1-3.16.48,9.18,9.18,0,0,1-3.08-.52,8.2,8.2,0,0,1-2.52-1.44,6.58,6.58,0,0,1-1.68-2.18,6.2,6.2,0,0,1-.6-2.7,1.5,1.5,0,0,1,.54-1.32,2,2,0,0,1,1.26-.48,2,2,0,0,1,1.22.38,1.52,1.52,0,0,1,.62,1.18,3.62,3.62,0,0,0,1.22,2.76,4.54,4.54,0,0,0,3,1A4.75,4.75,0,0,0,91.74,205a4,4,0,0,0,1.18-3.08,6.63,6.63,0,0,0-.36-2.22,8.4,8.4,0,0,0-1.08-2,16.88,16.88,0,0,0-1.78-2.1L87.24,193c-1-1-1.83-1.86-2.6-2.68A20.24,20.24,0,0,1,82.7,188a11.44,11.44,0,0,1-1.2-2.28,6.47,6.47,0,0,1-.42-2.28A7.32,7.32,0,0,1,81.5,181a5.54,5.54,0,0,1,1.36-2.14,6.91,6.91,0,0,1,2.4-1.52,9.66,9.66,0,0,1,3.58-.58,8,8,0,0,1,4.5,1.22A5.89,5.89,0,0,1,95.76,182Z"/>
      <path class="cls-7" d="M108.44,206.16a3.41,3.41,0,0,0,2.66-1,6.35,6.35,0,0,0,1.38-2.66,17.66,17.66,0,0,0,.54-3.64c.07-1.35.1-2.66.1-3.94V192.6c0-1.34,0-2.7,0-4.08s0-2.8-.06-4.24c0-.91-.05-1.88-.06-2.92s0-2,0-2.8a1.72,1.72,0,0,1,.68-1.12,2,2,0,0,1,1.16-.36,1.83,1.83,0,0,1,1.12.38,1.91,1.91,0,0,1,.72,1.1c0,.9,0,1.86,0,2.88s0,2.05.06,3.12,0,1.88,0,2.86,0,1.94,0,2.9,0,1.89,0,2.8v2.52a36.2,36.2,0,0,1-.42,5.78,13.84,13.84,0,0,1-1.4,4.38,7.13,7.13,0,0,1-2.56,2.76,6.92,6.92,0,0,1-3.9.88,8.62,8.62,0,0,1-3.28-.64,7.05,7.05,0,0,1-2.26-1.54,6.84,6.84,0,0,1-1.4-2.18,14.15,14.15,0,0,1-.76-2.6,21.21,21.21,0,0,1-.34-2.8c0-1-.08-1.88-.08-2.76v-4.16c0-1.2,0-2.55,0-4v-7c0-1,0-2,0-3a1.56,1.56,0,0,1,.66-1.12,2,2,0,0,1,1.14-.36,1.86,1.86,0,0,1,1.1.38,2.07,2.07,0,0,1,.78,1.06c0,1.36,0,2.68,0,4v8.8c0,1.69,0,3.38.08,5.06q0,1.35.12,3.06a13.91,13.91,0,0,0,.5,3.18,6.56,6.56,0,0,0,1.28,2.48A3,3,0,0,0,108.44,206.16Z"/>
      <path class="cls-7" d="M133.56,180.28c0,1.52,0,3.2,0,5s0,3.66,0,5.48,0,3.54,0,5.18,0,3,0,4.14a14.29,14.29,0,0,1-.42,3.48,9.14,9.14,0,0,1-1.28,2.94,6.29,6.29,0,0,1-2.22,2,6.63,6.63,0,0,1-3.2.74,6.46,6.46,0,0,1-2.56-.5,6,6,0,0,1-2-1.4,6.32,6.32,0,0,1-1.3-2.2,8.61,8.61,0,0,1-.46-2.9,1.59,1.59,0,0,1,.54-1.32,1.85,1.85,0,0,1,1.22-.44,2,2,0,0,1,1.16.34,1.37,1.37,0,0,1,.6,1.1,6.21,6.21,0,0,0,.26,1.48,5.36,5.36,0,0,0,.58,1.28,3.1,3.1,0,0,0,.92.92,2.31,2.31,0,0,0,1.28.36,2.78,2.78,0,0,0,1.56-.66,3.87,3.87,0,0,0,1-1.4,7.55,7.55,0,0,0,.5-2,20.14,20.14,0,0,0,.14-2.4c0-1.26,0-2.82,0-4.7s0-3.77-.06-5.66c0-.7,0-1.43,0-2.2s0-1.56,0-2.34v-4.38h-4a1.83,1.83,0,0,1-1.36-.46,1.47,1.47,0,0,1-.44-1,1.61,1.61,0,0,1,.46-1.14,1.86,1.86,0,0,1,1.38-.54c.72,0,1.55,0,2.5,0l2.94,0h5.44a1.64,1.64,0,0,1,1.28.48,1.55,1.55,0,0,1,0,2.16,1.64,1.64,0,0,1-1.28.48Z"/>
      <path class="cls-7" d="M142.24,208.36a1.32,1.32,0,0,1-1.18-.46,1.79,1.79,0,0,1-.3-1,1.91,1.91,0,0,1,.3-1,1.34,1.34,0,0,1,1.22-.48h2.48v-3.54c0-1.22,0-2.42,0-3.62v-1.92c0-.75,0-1.52,0-2.3s0-1.56,0-2.3V189.8c0-1.68,0-3.27,0-4.76s0-3.07-.1-4.72l-1.12,0a8.38,8.38,0,0,0-1.12,0,1.61,1.61,0,0,1-1.3-.46,1.55,1.55,0,0,1-.46-1.06,1.52,1.52,0,0,1,.46-1.06,1.86,1.86,0,0,1,1.38-.54c.75,0,1.48,0,2.2,0l2.16,0,4.36,0a1.27,1.27,0,0,1,1.12.5,1.89,1.89,0,0,1,.36,1.12,1.78,1.78,0,0,1-.36,1.09,1.36,1.36,0,0,1-1.16.49h-2.8v25H151a1.48,1.48,0,0,1,1.18.48,1.6,1.6,0,0,1,.42,1.08,1.47,1.47,0,0,1-.4,1,1.54,1.54,0,0,1-1.2.46Z"/>
      <path class="cls-7" d="M156.6,178.8a1.77,1.77,0,0,1,.38-1.34,1.41,1.41,0,0,1,1.1-.46,1.82,1.82,0,0,1,.88.24,1.65,1.65,0,0,1,.68.68l1,1.84c.32.58.63,1.18.92,1.8q2.52,4.71,4.9,9.36t4.62,9.4V181.16c0-1,0-1.82,0-2.48a2,2,0,0,1,.58-1.32,1.65,1.65,0,0,1,1.18-.48,2.16,2.16,0,0,1,1.28.46,1.66,1.66,0,0,1,.64,1.46c0,.24,0,.6,0,1.08s0,1,0,1.5,0,1,0,1.48,0,.8,0,1v9.44c0,1.84,0,3.86,0,6.08s0,4.65,0,7.32a7.3,7.3,0,0,1-.06.94,3.5,3.5,0,0,1-.22.86,1.55,1.55,0,0,1-.48.64,1.35,1.35,0,0,1-.84.24,1.68,1.68,0,0,1-1.16-.44,3.85,3.85,0,0,1-.84-1.24l-1.48-3.06c-.53-1.11-1.08-2.22-1.64-3.34s-1.08-2.15-1.64-3.24-1.15-2.22-1.76-3.36q-1.16-2.28-2.24-4.2a41.1,41.1,0,0,1-2-4.2c0,.56.05,1.18.08,1.88s0,1.38.08,2.08.05,1.36.08,2,0,1.2,0,1.68c.05,1.44.1,2.72.14,3.86s.07,2.21.1,3.24,0,2.06.08,3.1,0,2.2,0,3.48a1.57,1.57,0,0,1-.62,1.36,2.24,2.24,0,0,1-1.3.44,1.8,1.8,0,0,1-1.2-.46,1.7,1.7,0,0,1-.52-1.34v-4c0-1.66,0-3.4,0-5.24s-.07-3.8-.2-5.88q-.12-3.45-.18-6.78T156.6,178.8Z"/>
      <path class="cls-7" d="M190.92,178.36a1.44,1.44,0,0,1,.62-1.2,2.09,2.09,0,0,1,1.22-.4,2.59,2.59,0,0,1,1.22.36,1.19,1.19,0,0,1,.66,1.12c0,.69,0,1.34,0,1.94s0,1.16,0,1.7,0,1.06,0,1.6,0,1.08,0,1.64c0,.77,0,1.56,0,2.36s0,1.6,0,2.4q0,3.72,0,7.2c0,2.32,0,4.76-.14,7.32a.84.84,0,0,1,0,.18,1,1,0,0,0,0,.3.48.48,0,0,0,.12.3.58.58,0,0,0,.44.14c1.15,0,2.18,0,3.1,0s1.79,0,2.62,0h.82l1,0c.36,0,.71,0,1,0h.78a1.43,1.43,0,0,1,1.16.52,1.71,1.71,0,0,1,.44,1.12,1.37,1.37,0,0,1-.4,1,1.62,1.62,0,0,1-1.12.46l-2.5.06-3.18,0-3.12,0h-2.36a3.74,3.74,0,0,1-2-.42c-.44-.28-.63-.89-.58-1.82,0-2,.09-4.14.1-6.48s0-4.8,0-7.36V184.8c0-1.26,0-2.44,0-3.56S190.87,179.16,190.92,178.36Z"/>
      <path class="cls-7" d="M208.92,195.16v-5.94c0-1.62,0-2.95,0-4s0-1.88,0-2.48,0-1.06,0-1.36,0-.52,0-.62v-1.92a2.63,2.63,0,0,1,.26-1.14c.17-.39.58-.58,1.22-.58h5.4l1.84,0c.58,0,1.14,0,1.68,0a17.76,17.76,0,0,1,2.56.12,2.46,2.46,0,0,1,.94.42,1.23,1.23,0,0,1,.5,1.1,2,2,0,0,1-.18.9,1.34,1.34,0,0,1-.48.52,1.66,1.66,0,0,1-.66.22c-.24,0-.48,0-.72,0l-8.76,0c0,1.84.06,3.58.1,5.22s.07,3.38.1,5.22c.34,0,.83,0,1.46,0l2.22,0c.85,0,1.67,0,2.46,0s1.62,0,2.5-.06a1.46,1.46,0,0,1,1.1.36,1.36,1.36,0,0,1,.46,1.08,1.79,1.79,0,0,1-.46,1.3,1.9,1.9,0,0,1-1.26.5l-2,.06-2.84,0h-3.68c0,1.09,0,2.2,0,3.31s0,2.21,0,3.31v3.69c0,.3.05.49.16.58a.66.66,0,0,0,.48.15h1.88c.85,0,1.64,0,2.36,0s1.27,0,1.64,0l3.28,0a1.44,1.44,0,0,1,1.64,1.62,1.58,1.58,0,0,1-.4,1.12,1.78,1.78,0,0,1-1.24.46c-.62,0-1.3,0-2.06,0h-8.82c-1.1,0-1.8-.28-2.12-.84a3.9,3.9,0,0,1-.48-2Z"/>
      <path class="cls-7" d="M228.2,195.16v-5.94c0-1.62,0-2.95,0-4s0-1.88,0-2.48,0-1.06,0-1.36,0-.52,0-.62v-1.92a2.63,2.63,0,0,1,.26-1.14c.17-.39.58-.58,1.22-.58H235l1.84,0c.58,0,1.14,0,1.68,0a17.76,17.76,0,0,1,2.56.12,2.46,2.46,0,0,1,.94.42,1.23,1.23,0,0,1,.5,1.1,2,2,0,0,1-.18.9,1.34,1.34,0,0,1-.48.52,1.66,1.66,0,0,1-.66.22c-.24,0-.48,0-.72,0l-8.76,0c0,1.84.06,3.58.1,5.22s.07,3.38.1,5.22c.34,0,.83,0,1.46,0l2.22,0c.85,0,1.67,0,2.46,0s1.62,0,2.5-.06a1.46,1.46,0,0,1,1.1.36,1.36,1.36,0,0,1,.46,1.08,1.79,1.79,0,0,1-.46,1.3,1.9,1.9,0,0,1-1.26.5l-2,.06-2.84,0h-3.68c0,1.09,0,2.2,0,3.31s0,2.21,0,3.31v3.69c0,.3.05.49.16.58a.66.66,0,0,0,.48.15h1.88c.85,0,1.64,0,2.36,0s1.26,0,1.64,0l3.28,0a1.44,1.44,0,0,1,1.64,1.62,1.58,1.58,0,0,1-.4,1.12,1.78,1.78,0,0,1-1.24.46c-.62,0-1.3,0-2.06,0H230.8c-1.1,0-1.8-.28-2.12-.84a3.9,3.9,0,0,1-.48-2Z"/>
    </g>
    <path class="cls-8" d="M259.78,136.31c0,6.21-2.71,15.6-6.85,19.57a21.66,21.66,0,0,1-31.48-1.51c-3.3-3.83-5.15-12.61-5.15-18.06,0-6,2.43-14.7,6.37-18.65a21.64,21.64,0,0,1,27.12-2.93C255.8,118.61,259.78,128.59,259.78,136.31Z"/>
  </g>
</svg>
